<svg width="27" height="28" viewBox="0 0 27 28" fill="none" xmlns="http://www.w3.org/2000/svg">
<path d="M14.6108 1.02614C7.72665 0.459959 1.65575 5.81541 1.06701 12.9739C0.877773 15.2748 1.30802 17.472 2.16594 19.4298L0.0790176 25.2333C0.0456643 25.3261 0.0362631 25.4263 0.0517515 25.5238C0.0672398 25.6213 0.107077 25.7127 0.16729 25.7889C0.227503 25.8651 0.305988 25.9235 0.394921 25.9582C0.483854 25.9928 0.580126 26.0026 0.67414 25.9865L6.75155 24.9424C8.42046 26.057 10.3571 26.7995 12.4768 26.9739C19.361 27.54 25.4319 22.1846 26.0206 15.0261C26.6094 7.86769 21.495 1.59233 14.6108 1.02614ZM14.5181 2.1543C20.8159 2.67226 25.4743 8.3882 24.9357 14.9369C24.3971 21.4856 18.8674 26.3637 12.5696 25.8457C10.5505 25.6796 8.70455 24.9768 7.13931 23.8851C7.02482 23.8053 6.88516 23.774 6.74864 23.7975L1.42645 24.7118L3.25035 19.6421C3.27638 19.5705 3.28821 19.4942 3.28514 19.4179C3.28206 19.3416 3.26415 19.2668 3.23247 19.1981C2.37831 17.3543 1.97148 15.2574 2.15195 13.0631C2.69054 6.51437 8.22023 1.63635 14.5181 2.1543ZM9.56688 6.85817C9.21914 6.82957 8.71144 6.92325 8.26588 7.34679C7.99826 7.60119 6.8921 8.55171 6.74252 10.3704C6.58657 12.2666 7.71672 14.0068 7.85235 14.2296L7.85341 14.2297L7.85332 14.2308C7.84044 14.2098 8.02321 14.541 8.27068 14.9406C8.51815 15.3401 8.86684 15.8669 9.31195 16.4426C10.2022 17.5942 11.4759 18.9452 13.1209 19.8427C13.8785 20.2555 14.4814 20.5167 14.9388 20.7088C15.7862 21.0647 16.583 21.0867 17.1864 21.0445C17.638 21.0128 18.1468 20.8305 18.6584 20.551C19.17 20.2716 19.6784 19.9136 19.9377 19.3275C20.1236 18.9073 20.2329 18.5138 20.2875 18.1872C20.3149 18.0238 20.3286 17.8788 20.3293 17.7436C20.3301 17.6084 20.3496 17.5064 20.246 17.2909C20.029 16.8389 19.7439 16.8041 19.4581 16.626C19.2993 16.527 18.8469 16.2485 18.3927 15.9749C17.939 15.7017 17.5465 15.4604 17.302 15.3462C17.1475 15.2734 16.96 15.1716 16.6765 15.1816C16.3931 15.1916 16.0985 15.3794 15.9166 15.6149C15.7442 15.8381 15.0661 16.5435 14.86 16.7503C14.8577 16.7485 14.8733 16.7577 14.8023 16.7134C14.5799 16.5748 14.3042 16.4498 13.9028 16.1846C13.5015 15.9195 13.0037 15.5358 12.4717 14.9611L12.4718 14.96C11.6799 14.1056 11.161 13.0721 10.999 12.7259C11.013 12.7112 10.9972 12.7291 11.0264 12.7038L11.0276 12.7027C11.2372 12.5206 11.4281 12.2981 11.5872 12.1365C11.8128 11.9074 11.9212 11.698 12.0361 11.5035C12.2649 11.1158 12.1925 10.6625 12.0986 10.4194L12.0986 10.4183C12.1051 10.4351 12.0491 10.271 11.9898 10.0821C11.9302 9.89274 11.8547 9.64731 11.774 9.38559C11.6125 8.86214 11.4325 8.27512 11.3251 7.93114L11.3251 7.93004C11.1985 7.52487 11.0068 7.22471 10.7371 7.06532C10.4673 6.90593 10.2158 6.92426 10.2058 6.92292L10.2048 6.92283C10.005 6.89672 9.7852 6.87612 9.56688 6.85817ZM9.4741 7.98633C9.68324 8.00353 9.88921 8.02314 10.0612 8.04571C10.2381 8.06952 10.227 8.06937 10.1942 8.04999C10.1609 8.0303 10.2084 8.02871 10.2889 8.28627C10.3941 8.62308 10.5751 9.21224 10.737 9.73732C10.818 9.99985 10.8937 10.2462 10.9545 10.4396C11.0152 10.6329 11.0479 10.7407 11.0876 10.8443L11.0875 10.8454L11.0885 10.8466C11.1275 10.9467 11.1284 10.8847 11.1093 10.917C10.9754 11.1439 10.9551 11.2006 10.8279 11.3298C10.6342 11.5265 10.435 11.7473 10.3318 11.8369C10.2415 11.9152 10.0804 12.0353 9.9652 12.287C9.84985 12.5391 9.86439 12.8993 9.99327 13.1778C10.1649 13.5487 10.7343 14.7226 11.6848 15.7482C12.2834 16.3949 12.8542 16.8372 13.3143 17.1412C13.7744 17.4451 14.1541 17.6317 14.2382 17.6841C14.4379 17.8086 14.6589 17.9106 14.9266 17.8993C15.1943 17.888 15.4365 17.7396 15.596 17.5806L15.5972 17.5796C15.8095 17.3673 16.4408 16.7317 16.7514 16.3335C16.7628 16.3388 16.7592 16.3351 16.8481 16.377L16.848 16.3781L16.8491 16.3782C16.8897 16.3971 17.3941 16.6844 17.8427 16.9546C18.2914 17.2248 18.7462 17.5047 18.8939 17.5967C19.1071 17.7296 19.2062 17.8128 19.2333 17.8154C19.2311 17.8652 19.2285 17.9191 19.2149 18.0002C19.1772 18.2252 19.0932 18.534 18.949 18.8602C18.8783 19.0198 18.5529 19.3343 18.1573 19.5504C17.7617 19.7665 17.2905 19.9033 17.1192 19.9153C16.6042 19.9514 15.998 19.9302 15.3526 19.6591C14.905 19.4712 14.3476 19.2298 13.6322 18.8399C12.1813 18.0483 10.9949 16.8068 10.1631 15.7307C9.7471 15.1926 9.41919 14.6966 9.18763 14.3228C8.9565 13.9496 8.858 13.7572 8.77396 13.6199L8.773 13.6187C8.62393 13.3738 7.71718 11.8006 7.82746 10.4597C7.94417 9.04058 8.62382 8.53622 8.99842 8.18013C9.19508 7.99319 9.39437 7.97977 9.4741 7.98633Z" fill="#24FF00"/>
</svg>
